<?xml version="1.0" encoding="UTF-8"?>
<svg width="24px" height="24px" viewBox="0 0 24 24" version="1.1" xmlns="http://www.w3.org/2000/svg">
    <g stroke="none" stroke-width="1" fill="none" fill-rule="evenodd">
        <path d="M17.5,9 L17.5,10.5 L19.5,10.5 L19.5,12 L17.5,12 L17.5,13.5 L16,13.5 L16,12 L14,12 L14,10.5 L16,10.5 L16,9 L17.5,9 Z" fill="#9CA3AF"/>
        <path d="M12,3 L3,10.5 L3,21 L21,21 L21,10.5 L12,3 Z M12,4.5 L19.5,11 L19.5,19.5 L4.5,19.5 L4.5,11 L12,4.5 Z" fill="#9CA3AF"/>
        <path d="M7.5,12 L10.5,12 L10.5,13.5 L7.5,13.5 L7.5,12 Z M7.5,15 L10.5,15 L10.5,16.5 L7.5,16.5 L7.5,15 Z" fill="#9CA3AF"/>
    </g>
</svg> 