<svg xml:space="preserve" style="max-height: 500px" viewBox="125.55817281355932 30.869243874 344.72429378531075 131.33483999999999" y="0px" x="0px" xmlns:xlink="http://www.w3.org/1999/xlink" xmlns="http://www.w3.org/2000/svg" id="Layer_1" version="1.1" width="344.72429378531075" height="131.33483999999999">
<style type="text/css">
	.st0{stroke:#000000;stroke-width:3;stroke-miterlimit:10;}
	.st1{fill:#FFFFFF;stroke:#000000;stroke-width:3;stroke-miterlimit:10;}
	.st2{fill:#FFFFFF;}
</style>
<rect height="121.88" width="172.24" class="st0" y="34.74" x="125.69"/>
<g>
	<g>
		<path d="M230.94,98.52l-68.22-28.95l32.73,66.37l-8.61,9.08l-40.73-84.57l6.77-7.14l86.56,36.25L230.94,98.52z" class="st2"/>
	</g>
	<g>
		<path d="M192.67,93.31l68.22,28.95L228.16,55.9l8.61-9.08l40.73,84.57l-6.77,7.14l-86.56-36.25L192.67,93.31z" class="st2"/>
	</g>
</g>
<g>
	<g>
		<g>
			<path d="M336.2,75.39V47.5h-10.55v-1.39h22.95v1.39h-10.55v27.89H336.2z"/>
			<path d="M360.21,53.87h9.89v20.21h8.08v1.32h-17.96v-1.32h8.12V55.18h-8.12V53.87z M369.04,49.88c-0.59,0-1.04-0.16-1.37-0.49&#10;&#9;&#9;&#9;&#9;c-0.32-0.33-0.49-0.81-0.49-1.45c0-0.61,0.16-1.09,0.49-1.43c0.32-0.34,0.78-0.51,1.37-0.51c0.62,0,1.08,0.17,1.39,0.51&#10;&#9;&#9;&#9;&#9;c0.31,0.34,0.46,0.82,0.46,1.43c0,0.63-0.15,1.12-0.46,1.45C370.12,49.71,369.66,49.88,369.04,49.88z"/>
			<path d="M387.8,53.87h1.77v1.5h1.41l-1.19,0.44c0.23-0.76,0.76-1.34,1.57-1.76c0.81-0.41,1.76-0.62,2.85-0.62&#10;&#9;&#9;&#9;&#9;c1.26,0,2.33,0.27,3.2,0.81c0.87,0.54,1.46,1.32,1.79,2.34l-1.15-1.02h2.56l-1.15,0.81c0.29-0.9,0.9-1.62,1.81-2.14&#10;&#9;&#9;&#9;&#9;c0.91-0.52,2-0.79,3.27-0.79c1.77,0,3.16,0.54,4.17,1.61c1.02,1.07,1.52,2.55,1.52,4.43v15.92h-1.77v-15.7&#10;&#9;&#9;&#9;&#9;c0-1.59-0.37-2.79-1.1-3.62c-0.74-0.83-1.79-1.24-3.18-1.24c-1.41,0-2.48,0.42-3.2,1.24c-0.72,0.83-1.08,2.04-1.08,3.62v15.7&#10;&#9;&#9;&#9;&#9;h-1.77v-15.7c0-1.59-0.37-2.79-1.1-3.62c-0.74-0.83-1.79-1.24-3.18-1.24c-1.38,0-2.44,0.42-3.18,1.24&#10;&#9;&#9;&#9;&#9;c-0.74,0.83-1.1,2.04-1.1,3.62v15.7h-1.77V53.87z"/>
			<path d="M420.99,63.75h17.79l-0.57,0.04c0-2.93-0.68-5.17-2.05-6.72c-1.37-1.55-3.38-2.32-6.02-2.32c-2.68,0-4.77,0.85-6.27,2.54&#10;&#9;&#9;&#9;&#9;c-1.5,1.7-2.25,4.07-2.25,7.12c0,3.27,0.76,5.77,2.27,7.5c1.52,1.73,3.7,2.6,6.55,2.6c2.12,0,3.88-0.5,5.3-1.5&#10;&#9;&#9;&#9;&#9;c1.41-1,2.41-2.45,3-4.36h1.77c-0.47,1.56-1.17,2.87-2.1,3.94s-2.05,1.87-3.38,2.42c-1.32,0.55-2.85,0.82-4.59,0.82&#10;&#9;&#9;&#9;&#9;c-2.29,0-4.23-0.43-5.8-1.3c-1.57-0.87-2.77-2.15-3.6-3.84c-0.82-1.7-1.24-3.79-1.24-6.28c0-2.32,0.41-4.3,1.24-5.95&#10;&#9;&#9;&#9;&#9;c0.82-1.65,2.01-2.9,3.55-3.75c1.54-0.85,3.39-1.28,5.54-1.28c2.12,0,3.9,0.4,5.34,1.19c1.44,0.79,2.54,1.95,3.29,3.48&#10;&#9;&#9;&#9;&#9;c0.75,1.53,1.12,3.41,1.12,5.66c0,0.2-0.01,0.4-0.02,0.62c-0.02,0.22-0.04,0.43-0.07,0.62h-18.8V63.75z"/>
		</g>
	</g>
	<g>
		<g>
			<path d="M337.12,112.16c-2.24,0-4.16-0.44-5.76-1.32c-1.6-0.88-2.83-2.15-3.66-3.83c-0.84-1.67-1.26-3.69-1.26-6.06&#10;&#9;&#9;&#9;&#9;s0.42-4.39,1.26-6.06c0.84-1.67,2.06-2.95,3.66-3.83c1.6-0.88,3.52-1.32,5.76-1.32c2.27,0,4.19,0.44,5.78,1.32&#10;&#9;&#9;&#9;&#9;c1.59,0.88,2.8,2.15,3.64,3.83c0.84,1.67,1.26,3.69,1.26,6.06s-0.42,4.39-1.26,6.06c-0.84,1.67-2.05,2.95-3.64,3.83&#10;&#9;&#9;&#9;&#9;C341.32,111.72,339.39,112.16,337.12,112.16z M337.12,110.84c2.8,0,4.98-0.87,6.55-2.6c1.57-1.73,2.36-4.16,2.36-7.28&#10;&#9;&#9;&#9;&#9;c0-3.12-0.79-5.55-2.36-7.29c-1.57-1.73-3.76-2.6-6.55-2.6s-4.98,0.87-6.55,2.6c-1.58,1.73-2.36,4.16-2.36,7.29&#10;&#9;&#9;&#9;&#9;c0,3.12,0.79,5.55,2.36,7.28C332.14,109.98,334.33,110.84,337.12,110.84z"/>
			<path d="M367.58,111.72h-1.77V91.52h-6V90.2h6v-3.18c0-2.17,0.64-3.84,1.92-5.02s3.11-1.76,5.5-1.76c2.27,0,4.07,0.54,5.41,1.61&#10;&#9;&#9;&#9;&#9;c1.34,1.07,2.1,2.61,2.27,4.61h-1.72c-0.18-1.59-0.78-2.8-1.81-3.64c-1.03-0.84-2.41-1.26-4.15-1.26c-1.79,0-3.19,0.47-4.17,1.41&#10;&#9;&#9;&#9;&#9;c-0.99,0.94-1.48,2.29-1.48,4.04v3.18h10.2v1.32h-10.2V111.72z"/>
		</g>
	</g>
	<g>
		<g>
			<path d="M337.7,149.3c-3.74,0-6.54-1.26-8.41-3.77s-2.8-6.28-2.8-11.31s0.97-8.8,2.91-11.31c1.94-2.51,4.84-3.77,8.7-3.77&#10;&#9;&#9;&#9;&#9;c2.09,0,3.88,0.38,5.36,1.15c1.49,0.77,2.66,1.93,3.53,3.48c0.87,1.55,1.43,3.48,1.7,5.8h-1.81c-0.32-3-1.22-5.26-2.69-6.77&#10;&#9;&#9;&#9;&#9;c-1.47-1.51-3.5-2.27-6.09-2.27c-3.24,0-5.67,1.14-7.3,3.42c-1.63,2.28-2.45,5.71-2.45,10.27s0.78,7.99,2.34,10.27&#10;&#9;&#9;&#9;&#9;c1.56,2.28,3.9,3.42,7.02,3.42c2.53,0,4.52-0.69,5.98-2.07c1.46-1.38,2.35-3.46,2.67-6.24h1.81c-0.26,2.15-0.82,3.94-1.68,5.38&#10;&#9;&#9;&#9;&#9;c-0.85,1.44-2.02,2.52-3.51,3.24C341.49,148.94,339.73,149.3,337.7,149.3z"/>
			<path d="M368.02,149.3c-2.24,0-4.16-0.44-5.76-1.32c-1.6-0.88-2.83-2.15-3.66-3.83c-0.84-1.67-1.26-3.69-1.26-6.06&#10;&#9;&#9;&#9;&#9;s0.42-4.39,1.26-6.06c0.84-1.67,2.06-2.95,3.66-3.83c1.6-0.88,3.52-1.32,5.76-1.32c2.27,0,4.19,0.44,5.78,1.32&#10;&#9;&#9;&#9;&#9;c1.59,0.88,2.8,2.15,3.64,3.83c0.84,1.67,1.26,3.69,1.26,6.06s-0.42,4.39-1.26,6.06c-0.84,1.67-2.05,2.95-3.64,3.83&#10;&#9;&#9;&#9;&#9;C372.22,148.86,370.29,149.3,368.02,149.3z M368.02,147.99c2.8,0,4.98-0.87,6.55-2.6c1.57-1.73,2.36-4.16,2.36-7.28&#10;&#9;&#9;&#9;&#9;c0-3.12-0.79-5.55-2.36-7.29c-1.57-1.73-3.76-2.6-6.55-2.6s-4.98,0.87-6.55,2.6c-1.58,1.73-2.36,4.16-2.36,7.29&#10;&#9;&#9;&#9;&#9;c0,3.12,0.79,5.55,2.36,7.28C363.04,147.12,365.23,147.99,368.02,147.99z"/>
			<path d="M397.77,149.3c-2.18,0-4.04-0.44-5.58-1.32c-1.54-0.88-2.74-2.15-3.58-3.83c-0.84-1.67-1.26-3.69-1.26-6.06&#10;&#9;&#9;&#9;&#9;s0.42-4.39,1.26-6.06c0.84-1.67,2.03-2.95,3.58-3.83c1.54-0.88,3.41-1.32,5.58-1.32c1.74,0,3.28,0.29,4.64,0.88&#10;&#9;&#9;&#9;&#9;c1.35,0.59,2.38,1.4,3.09,2.45h0.88v-12.41h1.77v31.04h-1.77v-2.89h-0.88c-0.71,1.02-1.74,1.84-3.09,2.43&#10;&#9;&#9;&#9;&#9;C401.05,149,399.51,149.3,397.77,149.3z M397.86,147.99c2.77,0,4.91-0.87,6.42-2.6c1.52-1.73,2.27-4.16,2.27-7.28&#10;&#9;&#9;&#9;&#9;c0-3.12-0.76-5.55-2.27-7.29c-1.52-1.73-3.66-2.6-6.42-2.6c-2.74,0-4.86,0.87-6.38,2.6c-1.52,1.73-2.27,4.16-2.27,7.29&#10;&#9;&#9;&#9;&#9;c0,3.12,0.76,5.55,2.27,7.28C393,147.12,395.12,147.99,397.86,147.99z"/>
			<path d="M420.99,137.22h17.79l-0.57,0.04c0-2.93-0.68-5.17-2.05-6.72c-1.37-1.55-3.38-2.32-6.02-2.32&#10;&#9;&#9;&#9;&#9;c-2.68,0-4.77,0.85-6.27,2.54c-1.5,1.7-2.25,4.07-2.25,7.12c0,3.27,0.76,5.77,2.27,7.5c1.52,1.73,3.7,2.6,6.55,2.6&#10;&#9;&#9;&#9;&#9;c2.12,0,3.88-0.5,5.3-1.5c1.41-1,2.41-2.45,3-4.36h1.77c-0.47,1.56-1.17,2.87-2.1,3.94s-2.05,1.87-3.38,2.42&#10;&#9;&#9;&#9;&#9;c-1.32,0.55-2.85,0.82-4.59,0.82c-2.29,0-4.23-0.43-5.8-1.3c-1.57-0.87-2.77-2.15-3.6-3.84c-0.82-1.7-1.24-3.79-1.24-6.28&#10;&#9;&#9;&#9;&#9;c0-2.32,0.41-4.3,1.24-5.95c0.82-1.65,2.01-2.9,3.55-3.75c1.54-0.85,3.39-1.28,5.54-1.28c2.12,0,3.9,0.4,5.34,1.19&#10;&#9;&#9;&#9;&#9;c1.44,0.79,2.54,1.95,3.29,3.48c0.75,1.53,1.12,3.41,1.12,5.66c0,0.2-0.01,0.4-0.02,0.62c-0.02,0.22-0.04,0.43-0.07,0.62h-18.8&#10;&#9;&#9;&#9;&#9;V137.22z"/>
		</g>
	</g>
</g>
</svg>